# xmcd
#
# Track frame offsets:
# 150
# 17059
# 28818
# 42279
# 59744
# 72366
# 86016
# 101226
# 119006
# 133256
# 148633
# 167880
# 182342
# 199982
# 215995
# 230062
# 247529
# 262073
#
# Disc length: 3834 seconds
#
# Revision: 0
# Processed by: cddbd v1.5.2PL0 Copyright (c) Steve Scherf et al.
# Submitted via: CoinsHifi v1.9h contact@coinshifi.com
#
DISCID=1e0ef812
DTITLE=hanna montana and 2009 - hanna montana
DYEAR=2009
DGENRE=Pop
TTITLE0=nm´xñdlkgnhb´lkgxd
TTITLE1=nmxjgñlfjhdñxç
TTITLE2=khjzsr´ñoipzhr
TTITLE3=jhñkgtfjhl´kgf
TTITLE4=hspeij+pohbjsgp+oh
TTITLE5=fghjspkhf
TTITLE6=sgjhskdtkuj
TTITLE7=mhxffhmgmj
TTITLE8=vgndgv
TTITLE9=ndz<nvgzv
TTITLE10=vxnf<fsnjhgzn
TTITLE11=bgdhbn<s
TTITLE12=e<hgfdnhgf
TTITLE13=t
TTITLE14=gfre<ahgfh
TTITLE15=fghfhghbgd
TTITLE16=wfgbsfnhg
TTITLE17=the best word
EXTD=
EXTT0=
EXTT1=
EXTT2=
EXTT3=
EXTT4=
EXTT5=
EXTT6=
EXTT7=
EXTT8=
EXTT9=
EXTT10=
EXTT11=
EXTT12=
EXTT13=
EXTT14=
EXTT15=
EXTT16=
EXTT17=
PLAYORDER=
